<?xml version="1.0" standalone="no"?>
<!DOCTYPE svg PUBLIC "-//W3C//DTD SVG 20010904//EN"
 "http://www.w3.org/TR/2001/REC-SVG-20010904/DTD/svg10.dtd">
<svg version="1.0" xmlns="http://www.w3.org/2000/svg"
 width="474.000000pt" height="484.000000pt" viewBox="0 0 474.000000 484.000000"
 preserveAspectRatio="xMidYMid meet">

<g transform="translate(0.000000,484.000000) scale(0.100000,-0.100000)"
fill="#000000" stroke="none">
<path d="M1025 3653 c-31 -8 -42 -22 -25 -34 13 -9 12 -10 -2 -5 -17 5 -22 -2
-16 -21 3 -11 32 -3 40 10 6 9 8 9 8 0 0 -9 17 -13 51 -13 31 0 48 4 44 10 -3
6 3 10 14 10 14 0 19 5 14 16 -4 11 -13 13 -37 8 -45 -9 -27 4 20 15 37 8 35
9 -26 9 -36 0 -74 -2 -85 -5z"/>
<path d="M3039 3566 c-2 -2 -353 -7 -779 -10 -803 -7 -920 -10 -921 -30 -4
-74 -12 -153 -20 -206 -6 -36 -12 -100 -13 -142 -2 -44 -8 -84 -16 -92 -7 -9
-9 -23 -6 -32 10 -27 -5 -173 -16 -149 -5 13 -7 3 -5 -32 2 -29 0 -50 -5 -47
-4 3 -8 -15 -8 -40 0 -27 -5 -46 -11 -46 -6 0 -9 -6 -6 -13 10 -28 -41 -67
-88 -67 -15 0 -24 -4 -20 -10 3 -5 19 -10 35 -10 28 0 29 -2 20 -26 -6 -14
-10 -40 -10 -57 0 -44 -8 -52 -60 -65 -61 -15 -212 -25 -185 -13 11 5 35 10
53 10 18 1 31 5 27 10 -3 5 3 12 12 14 17 4 17 5 0 6 -14 1 -17 8 -14 34 4 44
14 57 40 57 18 0 19 2 7 10 -17 11 -11 12 40 11 l35 0 -29 10 c-20 8 -52 8
-110 1 -48 -6 -105 -7 -141 -2 -85 12 -212 18 -223 11 -14 -9 -49 -119 -57
-179 -5 -36 -13 -55 -26 -62 -22 -12 -33 -49 -60 -205 -17 -96 -20 -151 -17
-272 1 -84 1 -153 -2 -153 -3 0 -41 18 -86 41 -66 33 -91 41 -142 42 -33 1
-63 -1 -65 -3 -3 -3 2 -36 10 -75 8 -38 13 -100 11 -136 -2 -45 1 -70 9 -78
10 -9 13 -8 13 8 0 11 5 23 11 27 8 4 9 -1 4 -17 -5 -13 -9 -46 -11 -74 -5
-98 -15 -132 -35 -120 -5 4 -9 1 -9 -4 0 -6 -16 -21 -35 -33 -19 -13 -35 -30
-36 -38 0 -11 -2 -11 -6 -2 -3 9 -9 10 -18 2 -9 -8 -11 -5 -7 15 2 14 9 22 15
18 7 -4 8 0 4 12 -4 9 -2 24 4 32 9 11 9 17 -1 26 -10 10 -12 9 -7 -5 4 -10 3
-18 -2 -18 -10 0 -21 -40 -26 -95 -4 -38 -3 -39 11 -20 14 18 15 16 7 -30 -4
-27 -7 -79 -6 -115 5 -116 87 -241 191 -290 141 -67 331 -42 441 56 131 118
157 319 61 460 -27 39 -29 54 -8 54 5 0 7 -4 3 -9 -10 -17 30 -32 45 -18 12
10 12 9 1 -6 -12 -15 -6 -29 53 -117 66 -99 66 -100 107 -100 l40 0 -22 32
c-13 18 -45 62 -71 97 -26 35 -53 81 -58 102 -6 21 -30 68 -54 103 -35 52 -41
68 -32 81 9 13 15 8 36 -32 50 -96 103 -183 126 -208 13 -14 21 -25 17 -25 -8
0 71 -69 79 -70 4 0 10 5 13 10 4 6 1 9 -5 8 -7 -2 -17 5 -23 15 -10 14 -9 20
3 27 10 6 11 10 3 10 -10 0 -12 76 -8 343 3 188 1 380 -4 427 -8 80 -8 86 13
103 l21 19 -22 -6 c-18 -6 -22 -4 -17 8 5 13 23 16 98 15 60 0 84 -3 71 -9
-17 -7 -16 -9 10 -10 17 -1 23 -4 13 -7 -17 -4 -31 -30 -23 -43 2 -4 5 -210 5
-458 1 -382 3 -454 15 -466 20 -20 19 -25 -5 -19 -11 3 -20 0 -20 -6 0 -6 7
-11 16 -11 8 0 12 -5 8 -11 -4 -8 -9 -8 -17 0 -6 6 -22 11 -36 10 -50 -1 73
-48 171 -65 97 -17 240 -14 292 6 16 6 120 10 239 10 222 1 437 13 522 30 27
5 190 19 360 31 284 19 379 29 280 29 -21 0 -36 3 -32 6 3 4 52 8 109 9 57 2
94 1 84 -2 -17 -4 -14 -8 15 -20 33 -14 33 -15 12 -25 -31 -15 -77 -2 -69 19
6 13 4 14 -9 3 -15 -12 -15 -15 0 -29 13 -13 40 -16 135 -16 l119 0 30 -48
c59 -92 180 -142 288 -117 38 8 58 9 61 2 2 -6 16 -30 33 -55 92 -139 289
-194 442 -124 72 33 127 89 167 171 29 59 33 76 33 151 0 74 -4 92 -31 147
-17 35 -50 82 -73 106 -23 23 -40 45 -36 48 3 3 34 -21 68 -55 l61 -61 74 0
c62 0 76 3 86 19 11 17 14 18 34 4 13 -8 27 -12 32 -9 5 3 8 40 6 83 -3 97
-15 310 -19 343 -1 14 -6 81 -9 150 -4 69 -9 136 -11 150 -2 14 -7 70 -10 125
-9 166 -16 208 -29 191 -6 -8 -35 -24 -65 -36 -48 -19 -93 -22 -425 -35 -511
-20 -660 -27 -665 -31 -2 -2 22 -4 55 -4 78 0 102 -16 96 -64 -2 -21 -10 -36
-17 -36 -7 0 -15 -6 -18 -13 -4 -10 3 -12 27 -9 17 3 28 1 24 -3 -4 -5 -80
-11 -168 -15 -88 -4 -162 -9 -164 -11 -2 -2 -6 -20 -9 -39 -3 -19 -3 -29 0
-22 3 9 52 12 201 10 109 -1 172 -4 142 -7 -42 -5 -49 -8 -31 -13 13 -4 20
-11 16 -17 -3 -6 1 -14 10 -17 13 -5 13 -9 3 -22 -10 -12 -10 -16 0 -19 6 -3
12 -13 12 -24 0 -14 -7 -19 -27 -20 -16 -1 -101 -4 -191 -8 -89 -3 -162 -2
-162 2 0 5 -4 6 -9 3 -5 -4 -17 -3 -26 0 -17 7 -17 38 1 93 5 16 4 22 -3 18
-15 -9 -25 34 -12 49 6 7 7 28 3 48 -3 20 -2 42 3 49 15 19 22 56 12 63 -21
12 6 24 59 26 l57 2 -50 4 c-58 4 -109 -18 -120 -52 -4 -11 -8 -23 -9 -26 -14
-39 -15 -83 -1 -109 8 -17 15 -36 15 -43 -1 -7 -7 2 -16 21 -8 19 -16 32 -18
30 -4 -4 -25 -122 -31 -174 -2 -16 -11 -72 -20 -124 -9 -51 -14 -100 -11 -108
3 -8 1 -11 -4 -8 -6 4 -10 -6 -10 -23 0 -56 -31 -192 -51 -226 -29 -50 -82
-68 -214 -71 l-110 -4 100 8 c103 9 154 24 192 58 27 24 49 127 92 423 45 312
53 349 75 383 35 51 70 65 184 73 l104 7 -6 96 c-3 53 -11 249 -17 436 -6 187
-14 419 -17 515 l-7 175 -146 3 c-80 1 -147 1 -150 -2z m-1049 -92 c0 -8 -7
-95 -15 -192 -33 -390 -55 -666 -55 -679 0 -9 -14 -13 -45 -13 -35 0 -48 -5
-59 -22 -18 -29 -49 -193 -44 -239 3 -31 6 -34 43 -39 l40 -5 0 -50 c0 -45 -2
-50 -20 -46 -31 5 -294 2 -347 -5 -46 -6 -48 -7 -48 -39 0 -24 5 -34 19 -38
15 -4 21 -17 25 -58 9 -87 28 -560 23 -566 -7 -6 -112 44 -125 60 -5 7 -15
199 -22 452 -14 480 -14 458 0 630 12 141 27 353 35 480 3 50 10 131 16 182 5
51 9 117 9 148 l0 55 285 0 c253 0 285 -2 285 -16z m390 -26 c0 -72 -48 -800
-53 -803 -5 -2 -370 15 -373 18 -2 2 1 52 6 113 5 60 19 224 30 364 11 140 23
276 26 303 l6 47 179 0 179 0 0 -42z m596 21 c17 -19 20 -44 25 -242 12 -405
18 -695 14 -699 -3 -2 -39 -1 -82 3 -43 4 -186 15 -318 24 -132 10 -243 21
-248 24 -7 7 40 868 49 899 3 9 66 12 272 12 260 0 269 -1 288 -21z m-1606
-373 c-13 -13 -35 7 -25 24 5 8 11 8 21 -1 10 -8 12 -15 4 -23z m918 -472 c33
-4 42 -9 42 -25 0 -23 2 -23 -190 -8 -177 13 -190 15 -190 35 0 13 19 14 148
9 81 -3 166 -8 190 -11z m21 -73 c15 -10 17 -123 2 -177 -7 -27 -9 -28 -67
-25 -32 1 -60 4 -62 6 -2 2 2 48 9 104 l13 101 45 0 c26 0 52 -4 60 -9z m323
-21 c350 -26 388 -30 388 -41 0 -5 -21 -9 -46 -9 -25 0 -64 -5 -88 -11 -35 -9
-85 -5 -274 20 -127 17 -236 31 -241 31 -6 0 -11 7 -11 15 0 8 2 15 5 15 2 0
122 -9 267 -20z m-71 -65 c107 -14 208 -28 225 -31 l31 -6 -13 -41 c-8 -23
-16 -59 -19 -79 -6 -36 -8 -38 -42 -38 -20 0 -56 -9 -79 -20 -45 -22 -54 -43
-54 -126 0 -38 4 -45 30 -59 35 -18 35 -17 20 -247 -13 -185 -33 -289 -61
-314 -17 -16 -37 -19 -107 -19 -83 0 -87 1 -99 26 -9 18 -15 135 -20 393 -6
284 -11 369 -21 375 -10 6 -12 31 -6 109 4 56 10 102 14 102 3 0 94 -11 201
-25z m-1391 -25 c0 -5 -6 -11 -12 -11 -7 -1 3 -5 22 -9 23 -5 -3 -7 -75 -8
-60 0 -101 2 -90 5 38 9 38 22 -1 17 -28 -3 -35 -1 -24 6 20 13 180 13 180 0z
m13 -86 c17 -6 17 -7 0 -20 -21 -15 -10 -31 27 -36 43 -6 -126 -28 -219 -28
-95 0 -101 3 -101 56 0 13 -6 24 -12 24 -9 0 -8 4 2 10 16 10 273 6 303 -6z
m1122 -34 c16 -26 -3 -35 -64 -32 -52 3 -61 7 -61 23 0 17 8 19 59 19 33 0 63
-5 66 -10z m1275 -30 c0 -5 -4 -10 -9 -10 -6 0 -13 5 -16 10 -3 6 1 10 9 10 9
0 16 -4 16 -10z m-1519 -42 c1 -7 2 -26 4 -43 3 -34 -3 -55 -15 -55 -5 0 -6
16 -3 35 5 30 3 35 -13 35 -18 1 -18 1 -2 14 10 7 15 16 11 19 -3 4 -1 7 5 7
7 0 12 -6 13 -12z m2506 -74 c7 -18 -17 -38 -31 -24 -11 11 -1 40 14 40 6 0
13 -7 17 -16z m-3973 -169 c30 -92 33 -117 11 -109 -9 4 -15 0 -15 -7 -1 -18
-21 16 -37 61 -18 49 -17 90 2 90 12 0 14 7 9 28 -13 51 4 17 30 -63z m988 51
l54 -24 12 -234 c7 -128 12 -255 12 -281 l0 -48 -57 3 -58 3 -12 220 c-17 332
-19 385 -12 385 4 0 31 -11 61 -24z m1538 -33 c0 -7 -4 -13 -10 -13 -5 0 -10
12 -10 28 0 21 2 24 10 12 5 -8 10 -21 10 -27z m-2123 -165 c-2 -35 -3 -7 -3
62 0 69 1 97 3 63 2 -35 2 -91 0 -125z m2102 126 c1 -12 -6 -27 -14 -34 -13
-10 -15 -9 -15 11 0 20 2 21 11 9 7 -11 9 -3 5 30 -4 32 -3 39 3 25 5 -11 10
-30 10 -41z m-1305 -6 c3 -18 12 -121 21 -228 15 -180 18 -198 42 -235 15 -22
27 -42 27 -44 1 -5 -177 -1 -182 4 -2 2 -8 84 -12 182 -5 98 -12 217 -15 266
l-6 87 60 0 c60 0 60 0 65 -32z m2784 -18 c-5 -24 -38 -25 -38 -1 0 14 6 19
20 18 13 -1 19 -7 18 -17z m-1471 -67 c-3 -10 -5 -4 -5 12 0 17 2 24 5 18 2
-7 2 -21 0 -30z m483 -1 c0 -6 -7 -18 -16 -26 -8 -9 -11 -16 -5 -16 6 0 11
-11 11 -25 0 -14 5 -25 10 -25 6 0 10 20 10 45 0 25 3 45 8 45 4 0 7 -24 7
-54 0 -48 -3 -55 -22 -59 -12 -2 -24 1 -26 7 -3 6 -3 0 -1 -14 5 -47 -6 -52
-122 -56 -60 -3 -140 -6 -178 -8 -40 -2 -63 0 -55 5 8 5 10 9 4 9 -15 -1 -45
-26 -45 -37 0 -6 -11 -8 -25 -5 -14 2 -25 9 -25 14 0 6 9 8 20 5 10 -3 24 1
31 9 6 8 7 14 2 14 -5 0 -10 36 -12 80 -2 75 -1 80 18 80 12 0 21 3 21 8 0 4
88 9 195 11 131 2 195 0 195 -7z m750 -57 c3 -22 3 -52 0 -65 l-6 -25 -292 -9
c-161 -5 -295 -6 -298 -4 -2 3 -6 34 -7 69 l-2 64 160 6 c88 3 223 5 300 5
l140 -1 5 -40z m-3343 -177 c-2 -13 -4 -3 -4 22 0 25 2 35 4 23 2 -13 2 -33 0
-45z m2150 56 c-3 -3 -12 -4 -19 -1 -8 3 -5 6 6 6 11 1 17 -2 13 -5z m1458
-34 c0 -18 -33 -26 -47 -12 -6 6 -7 15 -3 22 10 16 50 8 50 -10z m-4103 -9
c-11 -6 -10 -11 3 -25 13 -13 16 -32 13 -91 -2 -44 1 -77 7 -79 6 -3 -28 -4
-75 -4 -47 0 -77 2 -67 5 25 6 25 147 0 161 -13 8 -10 11 18 18 33 7 33 8 9
15 -17 5 -5 7 40 8 39 0 60 -3 52 -8z m135 -16 c20 -8 49 -28 64 -44 15 -16
31 -26 34 -23 4 4 4 -9 1 -28 -5 -26 -4 -31 3 -20 8 11 9 6 5 -20 -4 -26 -1
-40 10 -49 15 -12 14 -15 -4 -31 -19 -17 -23 -16 -74 4 -30 11 -51 22 -47 24
5 1 4 26 -1 55 -6 29 -8 69 -5 90 4 31 2 37 -14 37 -10 0 -19 5 -19 10 0 13 4
13 47 -5z m2513 5 c0 -5 -7 -10 -16 -10 -8 0 -12 5 -9 10 3 6 10 10 16 10 5 0
9 -4 9 -10z m380 -12 c0 -4 16 -8 35 -8 25 0 35 -4 35 -16 0 -8 5 -12 11 -8 6
3 3 -8 -5 -25 -10 -19 -24 -31 -36 -31 -18 0 -20 -6 -17 -47 2 -30 8 -47 15
-46 7 2 12 -2 12 -7 0 -20 -25 -90 -32 -90 -4 0 -5 7 -2 15 5 11 2 13 -12 8
-13 -5 -15 -3 -9 7 6 10 4 12 -9 7 -10 -4 -23 -7 -29 -8 -7 -1 -1 -4 13 -8 16
-5 24 -13 22 -24 -2 -9 3 -17 10 -17 9 -1 8 -3 -2 -9 -8 -5 -81 -12 -162 -15
-153 -7 -228 2 -228 29 0 7 -3 20 -6 29 -4 11 -1 16 11 16 10 0 13 5 9 12 -5
8 0 9 14 6 12 -4 25 -2 28 3 3 5 -2 9 -11 9 -9 0 -14 4 -11 9 3 5 56 10 118
11 62 1 124 3 137 4 21 2 38 22 40 49 1 4 -60 7 -135 7 -87 0 -133 4 -129 10
3 6 1 10 -4 10 -6 0 -11 -7 -11 -16 0 -9 -6 -14 -12 -11 -7 2 -12 11 -10 21 2
9 -4 16 -13 16 -12 0 -15 -6 -10 -20 3 -11 1 -28 -5 -37 -9 -15 -10 -14 -5 10
3 15 1 27 -5 27 -5 0 -10 10 -10 21 0 18 5 21 28 17 26 -4 27 -2 24 34 -3 31
-1 38 14 39 17 1 17 2 -1 8 -11 3 23 8 75 11 151 8 270 7 270 -2z m103 5 c-7
-2 -19 -2 -25 0 -7 3 -2 5 12 5 14 0 19 -2 13 -5z m505 -30 l26 -6 -24 -9
c-20 -7 -22 -11 -10 -19 13 -8 13 -10 0 -19 -10 -6 -11 -10 -2 -10 7 0 12 -14
12 -35 0 -31 -3 -35 -37 -44 -21 -6 -67 -10 -103 -10 -36 1 -58 3 -49 6 11 3
14 14 12 43 -2 24 1 40 8 40 6 0 7 5 2 13 -32 51 56 78 165 50z m-3141 -125
c-2 -13 -4 -3 -4 22 0 25 2 35 4 23 2 -13 2 -33 0 -45z m3623 -23 c0 -10 -10
-15 -30 -15 -20 0 -30 5 -30 15 0 10 10 15 30 15 20 0 30 -5 30 -15z m-1470
-35 c0 -5 -2 -10 -4 -10 -3 0 -8 5 -11 10 -3 6 -1 10 4 10 6 0 11 -4 11 -10z
m-2199 -77 c-12 -20 -14 -14 -5 12 4 9 9 14 11 11 3 -2 0 -13 -6 -23z m-381
-33 c0 -5 -5 -10 -11 -10 -5 0 -7 5 -4 10 3 6 8 10 11 10 2 0 4 -4 4 -10z"/>
<path d="M631 1588 c-1 -21 4 -28 17 -28 11 0 13 3 6 8 -7 4 -14 16 -17 27 -4
15 -5 14 -6 -7z"/>
<path d="M727 1464 c6 -15 23 -19 23 -5 0 5 -7 11 -14 14 -10 4 -13 1 -9 -9z"/>
<path d="M3460 1530 c0 -5 5 -10 11 -10 5 0 7 5 4 10 -3 6 -8 10 -11 10 -2 0
-4 -4 -4 -10z"/>
<path d="M3480 1469 c0 -5 5 -7 10 -4 6 3 10 8 10 11 0 2 -4 4 -10 4 -5 0 -10
-5 -10 -11z"/>
<path d="M3208 1343 c7 -3 16 -2 19 1 4 3 -2 6 -13 5 -11 0 -14 -3 -6 -6z"/>
<path d="M3425 2440 c-3 -5 -1 -10 4 -10 6 0 11 5 11 10 0 6 -2 10 -4 10 -3 0
-8 -4 -11 -10z"/>
<path d="M3182 2098 c-1 -42 1 -59 10 -56 17 6 21 105 5 111 -9 3 -13 -11 -15
-55z"/>
<path d="M142 1528 c-18 -23 -32 -46 -32 -51 0 -6 1 -8 3 -6 1 2 20 25 41 52
20 26 34 47 29 47 -5 0 -23 -19 -41 -42z"/>
<path d="M180 1480 c0 -5 5 -10 11 -10 5 0 7 5 4 10 -3 6 -8 10 -11 10 -2 0
-4 -4 -4 -10z"/>
<path d="M100 1448 c0 -23 17 -31 24 -12 4 9 4 19 1 22 -3 3 -5 -1 -5 -9 0
-11 -2 -11 -10 1 -8 13 -10 13 -10 -2z"/>
<path d="M1023 1303 c-15 -5 -17 -23 -4 -23 5 0 11 7 15 15 3 8 4 15 3 14 -1
0 -8 -3 -14 -6z"/>
<path d="M3148 1223 c7 -3 16 -2 19 1 4 3 -2 6 -13 5 -11 0 -14 -3 -6 -6z"/>
</g>
</svg>
